<?xml version="1.0" encoding="utf-8"?>
<!-- Generator: Adobe Illustrator 27.3.1, SVG Export Plug-In . SVG Version: 6.00 Build 0)  -->
<svg version="1.1" id="Camada_2_00000035507849219072627920000014593680934619692987_"
	 xmlns="http://www.w3.org/2000/svg" xmlns:xlink="http://www.w3.org/1999/xlink" x="0px" y="0px" viewBox="0 0 100.5 65.5"
	 style="enable-background:new 0 0 100.5 65.5;" xml:space="preserve">
<style type="text/css">
	.st0{fill-rule:evenodd;clip-rule:evenodd;fill:#7C8C03;stroke:#336535;stroke-width:0.5;stroke-miterlimit:1.59;}
	.st1{fill:none;stroke:#336535;stroke-width:0.5;stroke-linecap:round;stroke-linejoin:round;}
	.st2{fill:none;stroke:#336535;stroke-width:0.5;stroke-miterlimit:1.59;}
	.st3{fill:#7C8C03;}
	.st4{fill:#F29F05;}
</style>
<g id="g3850">
	<path id="path3055" class="st0" d="M12.2,1.2c0,0-4.6-1.2-7.9,3.2C1,8.7,0.2,16.8,0.2,16.9s7.4-3.2,10.7-7.5
		C14.2,5.1,12.3,1.2,12.2,1.2C12.2,1.2,12.2,1.2,12.2,1.2z"/>
	<path id="path3062" class="st1" d="M11.7,1.8L2.1,14.4"/>
	<path id="path3068" class="st1" d="M5.6,5.1C8.2,5,9.6,6.2,10.2,8.6"/>
	<path id="path3070" class="st1" d="M5.6,5.1C8.2,5,9.6,6.2,10.2,8.6"/>
	<path id="path3072" class="st1" d="M7.4,3.3c2.2-0.1,3.5,1,4,3.1"/>
	<path id="path3074" class="st1" d="M4.3,7.2C6.7,7.1,8,8.2,8.5,10.4"/>
	<path id="path3076" class="st1" d="M3.2,9.7C5,9.6,6,10.5,6.4,12.1"/>
	<path id="path3078" class="st1" d="M2.8,11.8c0.9,0,1.4,0.4,1.7,1.3"/>
	<path id="path3848" class="st2" d="M12.2,1.1c1-1.2,2.9-1,4-0.1"/>
</g>
<g>
	<g>
		<path class="st3" d="M46.1,9.2c-1-1.9-2.5-3.5-4.4-4.8c-2-1.2-4.5-1.8-7.5-1.8c-1.7,0-3.5,0.2-5.4,0.7c-1.8,0.4-3.5,1.1-5.1,2
			c-0.2,0.1-0.4,0.2-0.6,0.4l0,0l1,3.8c0.1-0.1,0.3-0.1,0.4-0.2c1-0.4,2-0.7,2.9-0.9c1.1-0.2,2-0.4,3-0.4c2,0,3.7,0.4,5,1.2
			s2.3,1.9,3,3.2c0.6,1.3,1,2.8,1,4.4s-0.2,3.2-0.8,4.8s-1.3,3.1-2.5,4.5c-1.2,1.4-2.7,2.5-4.7,3.3c-2,0.8-4.4,1.2-7.3,1.2l0.2,2.7
			c0.7,0.1,1.3,0.2,1.9,0.2c0.6,0,1.2,0.1,1.8,0.1c3.2,0,6-0.5,8.5-1.6s4.5-2.5,6.1-4.3c1.6-1.8,2.9-3.7,3.7-5.9
			c0.8-2.1,1.3-4.2,1.3-6.4C47.6,13.3,47.1,11.1,46.1,9.2z M23.6,5.3c-0.2,0.1-0.4,0.2-0.6,0.4l0,0l1,3.8c0.1-0.1,0.3-0.1,0.4-0.2
			C24.4,7.8,24.2,6.4,23.6,5.3z"/>
		<path class="st3" d="M24.5,9.3v0.2c0,1.9-0.2,4.1-0.5,6.8c-0.4,2.8-0.8,5.9-1.3,9.3c-0.5,3.4-0.9,7.1-1.3,11
			c-0.4,3.9-0.5,7.8-0.5,11.9c0,1,0,2,0.1,3.1s0.2,2.2,0.3,3.3c-0.5,0-1,0.1-1.5,0.1c-0.5,0-0.9,0-1.3,0c-2.5,0-4.2-0.4-5.3-1.3
			c-1.1-0.9-1.6-2.3-1.6-4.3l0,0c0-1.6,0.2-3.6,0.5-6c0.3-2.4,0.7-5.1,1.1-8.1c0.4-3,0.9-6,1.3-9.2c0.4-3.2,0.8-6.4,1.1-9.6
			c0.3-3.2,0.5-6.3,0.5-9.2c0-1.7-0.1-3.1-0.2-4.3c-0.1-1.1-0.3-2-0.6-2.6c0-0.1-0.1-0.1-0.1-0.2c2,0.1,3.8,0.6,5.2,1.4
			c1.4,0.8,2.5,1.8,3.2,3.2c0.1,0.2,0.2,0.4,0.3,0.6c-0.2,0.1-0.4,0.2-0.6,0.4l0,0l1,3.8C24.2,9.4,24.3,9.3,24.5,9.3z"/>
	</g>
</g>
<g>
	<g>
		<path class="st4" d="M34.3,43c0.6-1.7,1.2-3,1.8-4s1.3-1.7,2-2.2s1.2-0.7,1.8-0.7c0.6,0,1.1,0.2,1.5,0.5c0.4,0.3,0.7,0.8,0.9,1.3
			s0.3,1.1,0.3,1.8c0,0.7-0.1,1.4-0.4,2.1c-0.2,0.7-0.6,1.3-1.2,1.8c-0.5,0.5-1.2,0.7-2.1,0.7c-0.2,0-0.4,0-0.6,0s-0.4-0.1-0.5-0.2
			c0.2-0.3,0.4-0.7,0.6-1.2c0.2-0.5,0.3-1,0.4-1.6c0-0.4,0-0.7-0.1-0.9c-0.1-0.2-0.3-0.4-0.7-0.4c-0.4,0-0.8,0.3-1.3,0.8
			c-0.5,0.6-1,1.4-1.4,2.4c-0.4,1-0.8,2.3-1.1,3.8c-0.3,1.5-0.4,3.2-0.4,5c0,0.4,0,0.9,0.1,1.3c0,0.5,0.1,0.9,0.1,1.4
			c-0.3,0-0.5,0-0.7,0s-0.4,0-0.6,0c-1.2,0-2.1-0.2-2.7-0.7c-0.5-0.4-0.8-1.2-0.8-2.2c0-0.5,0.1-1.2,0.2-2c0.1-0.9,0.3-1.9,0.5-3
			s0.3-2.2,0.5-3.4s0.2-2.3,0.2-3.4c0-0.8,0-1.7-0.1-2.5c-0.1-0.8-0.2-1.6-0.4-2.4c1.7,0.5,2.8,1.3,3.4,2.2c0.6,1,0.9,2.1,0.9,3.3
			c0,0.2,0,0.5,0,0.8s0,0.7-0.1,1.1L34.3,43L34.3,43z"/>
		<path class="st4" d="M50.5,55.5c-0.8,0-1.7-0.2-2.5-0.5c-0.8-0.3-1.6-0.8-2.3-1.5c-0.7-0.7-1.2-1.6-1.6-2.7
			c-0.4-1.1-0.6-2.3-0.6-3.8c0-1.8,0.3-3.5,0.9-5s1.5-2.9,2.5-4c1.1-1.1,2.4-1.8,3.9-2.2c0.2,0,0.5,0.1,0.7,0.2s0.3,0.3,0.3,0.5
			c-0.8,0.5-1.6,1.2-2.3,2.1s-1.2,2.1-1.5,3.5l0.2,0.1c0.6-1.5,1.3-2.7,2.2-3.5c0.8-0.8,1.7-1.4,2.6-1.8s1.7-0.5,2.4-0.5
			c1,0,1.8,0.3,2.5,0.8s1.3,1.4,1.8,2.4c0.4,1,0.7,2.3,0.7,3.8c0,1.4-0.2,2.8-0.5,4.2s-0.9,2.7-1.7,3.9c-0.8,1.2-1.8,2.2-3,2.9
			S52.3,55.5,50.5,55.5L50.5,55.5z M51.3,53.1c0.8,0,1.5-0.3,2.1-0.8s1.1-1.3,1.5-2.2c0.4-0.9,0.7-1.9,1-3s0.3-2.2,0.3-3.3
			c0-1.9-0.2-3.3-0.7-4s-1.1-1.2-1.8-1.2s-1.4,0.3-2.1,0.8c-0.7,0.5-1.2,1.2-1.7,2.1s-0.9,1.8-1.2,2.9s-0.4,2.1-0.4,3.1
			s0.1,2,0.3,2.8s0.5,1.5,1,2C49.9,52.9,50.5,53.1,51.3,53.1L51.3,53.1z"/>
		<path class="st4" d="M68.2,47.6c0,1.8,0.3,3.1,0.8,4s1.3,1.4,2.4,1.4c0.8,0,1.6-0.3,2.5-0.8c0.8-0.5,1.6-1.3,2.2-2.4
			c0.4,0.1,0.7,0.2,0.9,0.4s0.3,0.5,0.3,0.8c-0.7,1.2-1.4,2-2.3,2.7c-0.9,0.6-1.7,1.1-2.6,1.3s-1.7,0.4-2.4,0.4
			c-1.1,0-2.1-0.3-3.1-0.8s-1.8-1.4-2.4-2.5s-0.9-2.6-0.9-4.3c0-1.5,0.2-3,0.6-4.4c0.4-1.4,1.1-2.6,1.9-3.7c0.8-1.1,1.8-1.9,3.1-2.6
			c1.2-0.6,2.6-0.9,4.2-0.9c1.2,0,2.2,0.2,2.9,0.6s1.3,0.9,1.6,1.6c0.3,0.6,0.5,1.3,0.5,2s-0.2,1.3-0.5,2s-0.7,1.1-1.3,1.5
			c-0.5,0.4-1.2,0.6-1.9,0.6c-0.2,0-0.5,0-0.8-0.1c-0.3,0-0.5-0.1-0.8-0.2c0.3-0.3,0.5-0.8,0.8-1.5c0.3-0.7,0.4-1.4,0.5-2.1
			c0-0.6-0.1-1.2-0.3-1.6c-0.2-0.5-0.7-0.7-1.3-0.7c-0.7,0-1.4,0.3-1.9,0.9s-1,1.3-1.4,2.2c-0.4,0.9-0.7,1.9-0.9,3
			C68.3,45.5,68.2,46.5,68.2,47.6L68.2,47.6z M69.8,56.3c1.4,0.1,2.4,0.4,3.2,1.1s1.1,1.5,1.1,2.6c0,1.3-0.4,2.4-1.2,3.4
			c-0.8,1-1.9,1.7-3.2,2.1c-0.5-0.2-1-0.6-1.3-1c-0.3-0.5-0.5-1-0.5-1.7c1-0.2,1.8-0.5,2.4-1.1s0.9-1.2,0.9-1.9c0-1-0.6-1.8-1.9-2.2
			c0-0.2,0.1-0.4,0.2-0.6C69.5,56.7,69.7,56.5,69.8,56.3L69.8,56.3z"/>
		<path class="st4" d="M93,49.4c-0.4,1.2-1,2.2-1.8,3.1s-1.7,1.6-2.6,2.1s-1.9,0.8-2.9,0.8c-1.4,0-2.6-0.6-3.4-1.7
			c-0.8-1.1-1.2-2.7-1.2-4.6c0-1.6,0.2-3.2,0.8-4.6s1.2-2.8,2.1-3.9c0.9-1.1,1.9-2,3-2.7c1.1-0.7,2.3-1,3.6-1c0.5,0,1,0,1.5,0.2
			s0.8,0.3,1.1,0.5c-1,0.3-1.9,0.9-2.8,1.7c-0.9,0.8-1.6,1.7-2.3,2.7s-1.2,2.2-1.6,3.3c-0.4,1.2-0.6,2.4-0.6,3.6
			c0,1.1,0.2,2,0.6,2.6s0.9,0.9,1.6,0.9c0.8,0,1.5-0.3,2.2-1c0.7-0.7,1.3-1.6,1.9-2.8s1-2.5,1.3-4s0.5-3,0.5-4.6
			c0-0.7,0-1.3-0.1-1.9c0-0.6-0.1-1.1-0.2-1.5c0.2,0,0.4-0.1,0.6-0.1h0.9c1.1,0,2,0.2,2.5,0.7s0.8,1.1,0.8,2c0,0.6-0.1,1.3-0.2,2.2
			s-0.3,1.9-0.5,3c-0.2,1.1-0.4,2.3-0.6,3.5s-0.2,2.4-0.2,3.6c0,0.9,0.1,1.7,0.2,2.4c0.2,0.7,0.4,1.4,0.8,2.3
			c-1.7-0.3-2.9-1-3.6-1.9c-0.7-0.9-1.1-2.3-1.1-4.3v-0.3c0,0,0-0.1,0-0.2L93,49.4L93,49.4z"/>
	</g>
</g>
<g>
	<g>
		<path class="st3" d="M53.9,33.2c-1.3,0-2.4-0.3-3.4-1c-1-0.7-1.7-1.6-2.2-2.8s-0.8-2.6-0.8-4.2s0.2-3.1,0.8-4.5s1.2-2.6,2.1-3.6
			s2-1.8,3.2-2.4c1.2-0.6,2.5-0.9,4-0.9c1.6,0,2.9,0.4,3.8,1.2s1.4,2,1.4,3.5c0,1.2-0.3,2.2-0.9,3.2s-1.5,1.6-2.6,2.1
			c-1.1,0.5-2.4,0.8-3.8,0.8c-0.6,0-1.2,0-1.7-0.1c-0.6-0.1-1.1-0.2-1.6-0.3l0.1-1.3h0.8c1.1,0,2.1-0.2,2.9-0.6
			c0.8-0.4,1.5-1,1.9-1.7s0.7-1.6,0.7-2.6c0-0.6-0.2-1.1-0.5-1.5s-0.7-0.6-1.2-0.6c-0.7,0-1.4,0.3-1.9,0.9c-0.5,0.6-1,1.4-1.4,2.3
			c-0.4,1-0.7,2-0.8,3.1c-0.2,1.1-0.3,2.1-0.3,3.1c0,1.8,0.3,3.1,0.8,4c0.5,0.9,1.3,1.4,2.3,1.4c1.9,0,3.5-1.1,5-3.2
			c0.8,0.2,1.2,0.6,1.2,1.2c-0.9,1.4-2,2.5-3.3,3.2C56.9,32.8,55.5,33.1,53.9,33.2L53.9,33.2z"/>
		<path class="st3" d="M76.7,27.4c-0.5,1.2-1.1,2.2-1.8,3c-0.8,0.8-1.6,1.5-2.5,1.9c-0.9,0.4-1.8,0.7-2.8,0.7
			c-0.8,0-1.6-0.2-2.4-0.7c-0.7-0.5-1.3-1.2-1.7-2.1s-0.7-2.2-0.7-3.7c0-1.8,0.2-3.5,0.8-5s1.2-2.8,2.1-3.9c0.9-1.1,2-2,3.2-2.6
			s2.5-0.9,4-0.9c0.5,0,1,0.1,1.5,0.1c0.5,0.1,0.9,0.2,1.2,0.4c-1.4,0.4-2.6,1-3.6,1.8c-1,0.8-1.8,1.8-2.4,2.9
			c-0.6,1.1-1.1,2.2-1.4,3.4s-0.4,2.2-0.4,3.2c0,0.7,0.1,1.4,0.2,2c0.2,0.6,0.4,1,0.8,1.4C71,29.8,71.4,30,72,30
			c0.8,0,1.6-0.3,2.2-1s1.2-1.6,1.7-2.7c0.5-1.1,0.9-2.4,1.2-3.9s0.6-2.9,0.8-4.5c0.2-1.6,0.4-3.1,0.5-4.6s0.2-2.9,0.3-4.2
			c0.1-1.3,0.1-2.3,0.1-3.2s0-1.6-0.1-2.4c0-0.8-0.1-1.4-0.2-2c1.1,0.2,2,0.7,2.6,1.3s1,1.4,1.3,2.3s0.4,2,0.4,3.1
			c0,1.3-0.1,2.7-0.3,4.3s-0.5,3.2-0.8,5c-0.3,1.8-0.6,3.6-0.8,5.4c-0.2,1.9-0.3,3.8-0.3,5.7c0,1.5,0.1,3.1,0.3,4.6
			c-1.1-0.3-1.9-0.7-2.5-1.3c-0.6-0.6-1-1.2-1.2-2c-0.2-0.8-0.3-1.6-0.4-2.5L76.7,27.4L76.7,27.4z"/>
		<path class="st3" d="M91.7,33.2c-1.3,0-2.4-0.3-3.4-1c-1-0.7-1.7-1.6-2.2-2.8s-0.8-2.6-0.8-4.2s0.2-3.1,0.8-4.5s1.2-2.6,2.1-3.6
			c0.9-1,2-1.8,3.2-2.4c1.2-0.6,2.5-0.9,4-0.9c1.6,0,2.9,0.4,3.8,1.2s1.4,2,1.4,3.5c0,1.2-0.3,2.2-0.9,3.2s-1.5,1.6-2.6,2.1
			c-1.1,0.5-2.4,0.8-3.8,0.8c-0.6,0-1.2,0-1.7-0.1c-0.6-0.1-1.1-0.2-1.6-0.3l0.1-1.3h0.8c1.1,0,2.1-0.2,2.9-0.6
			c0.8-0.4,1.5-1,1.9-1.7s0.7-1.6,0.7-2.6c0-0.6-0.2-1.1-0.5-1.5s-0.7-0.6-1.2-0.6c-0.7,0-1.4,0.3-1.9,0.9c-0.6,0.6-1,1.4-1.4,2.3
			c-0.4,1-0.7,2-0.8,3.1c-0.2,1.1-0.3,2.1-0.3,3.1c0,1.8,0.3,3.1,0.8,4c0.5,0.9,1.3,1.4,2.3,1.4c1.9,0,3.6-1.1,5-3.2
			c0.8,0.2,1.2,0.6,1.2,1.2c-0.9,1.4-2,2.5-3.3,3.2C94.7,32.8,93.3,33.1,91.7,33.2L91.7,33.2z"/>
	</g>
</g>
</svg>
