<?xml version="1.0" encoding="UTF-8"?>
<svg xmlns="http://www.w3.org/2000/svg" id="Layer_1" data-name="Layer 1" viewBox="0 0 24 24" width="512" height="512"><path d="M24,4.5v5.528c-.315-.238-.651-.436-1-.594V4.5c0-.827-.673-1.5-1.5-1.5H2.5c-.827,0-1.5,.673-1.5,1.5V21H9v1H0V4.5c0-1.378,1.121-2.5,2.5-2.5H21.5c1.379,0,2.5,1.122,2.5,2.5Zm-3,2.5H13v1h8v-1Zm2.268,4.732c.473,.472,.732,1.1,.732,1.768s-.26,1.296-.732,1.768l-8.732,8.732h-3.535v-3.536l8.732-8.732c.975-.976,2.561-.974,3.535,0Zm-.268,1.768c0-.401-.156-.777-.439-1.061-.584-.585-1.537-.585-2.121,0l-8.439,8.439v2.122h2.121l8.439-8.439c.283-.283,.439-.66,.439-1.061ZM7.5,7h-.5v-2h-1v2h-.5c-1.379,0-2.5,1.122-2.5,2.5,0,1.363,.973,2.535,2.312,2.786l2.191,.411c.867,.163,1.496,.921,1.496,1.803,0,.827-.673,1.5-1.5,1.5h-2c-.827,0-1.5-.673-1.5-1.5v-.5h-1v.5c0,1.378,1.121,2.5,2.5,2.5h.5v2h1v-2h.5c1.379,0,2.5-1.122,2.5-2.5,0-1.363-.973-2.535-2.313-2.786l-2.191-.411c-.867-.163-1.496-.921-1.496-1.803,0-.827,.673-1.5,1.5-1.5h2c.827,0,1.5,.673,1.5,1.5v.5h1v-.5c0-1.378-1.121-2.5-2.5-2.5Zm5.5,5h3.637l1-1h-4.637v1Z"/></svg>
